# xmcd
#
# Track frame offsets:
#  150
#  10762
#  22450
#  32917
#  42525
#  52105
#  61262
#  70852
#  79250
#  89397
#  97315
#  111115
#  121490
#  133220
#  139610
#  150477
#  160875
#  170172
#  178925
#  188607
#  201775
#  211425
#
# Disc length: 2951 seconds
#
# Revision: 0
# Processed by: cddbd v1.4PL0 Copyright (c) Steve Scherf et al.
# Submitted via: AltoMP3_Maker 3.0
#
DISCID=4b0b8516
DTITLE=Various Artist - Wagon Train Music Vol 2
DYEAR=1900
DGENRE=
TTITLE0=I've Been Working on the Railroad
TTITLE1=I'll Take you Home Again Kathleen
TTITLE2=Yellow Rose of Texas
TTITLE3=Billy in the Low Ground
TTITLE4=Colorado Trail
TTITLE5=Hava Nagilah
TTITLE6=Home on the Range
TTITLE7=Charming Billy
TTITLE8=Shake that Little Foot Sally Ann
TTITLE9=A Louette
TTITLE10=Tom Dooley
TTITLE11=Black is the Color of My Lovers Hair
TTITLE12=On Top of Old Smokey
TTITLE13=Cotton-eyed Joe
TTITLE14=Rock My Soul
TTITLE15=Jenny Lind
TTITLE16=My Kentucky Home
TTITLE17=Oh Them Golden Slippers
TTITLE18=John Henry
TTITLE19=Lullaby and Goodnight
TTITLE20=No Place Like Home
TTITLE21=House of the Rising Sun
EXTD=
EXTT0=
EXTT1=
EXTT2=
EXTT3=
EXTT4=
EXTT5=
EXTT6=
EXTT7=
EXTT8=
EXTT9=
EXTT10=
EXTT11=
EXTT12=
EXTT13=
EXTT14=
EXTT15=
EXTT16=
EXTT17=
EXTT18=
EXTT19=
EXTT20=
EXTT21=
PLAYORDER=
